<mxfile host="Electron" modified="2024-04-21T05:43:14.118Z" agent="Mozilla/5.0 (Windows NT 10.0; Win64; x64) AppleWebKit/537.36 (KHTML, like Gecko) draw.io/24.0.4 Chrome/120.0.6099.109 Electron/28.1.0 Safari/537.36" etag="UY8L8FkDQM11gR9YrhUC" version="24.0.4" type="device">
  <diagram name="Page-1" id="zuoflNrFZ7apGyWUZZ2N">
    <mxGraphModel dx="3482" dy="2280" grid="1" gridSize="10" guides="1" tooltips="1" connect="1" arrows="1" fold="1" page="1" pageScale="1" pageWidth="850" pageHeight="1100" math="0" shadow="0">
      <root>
        <mxCell id="0" />
        <mxCell id="1" parent="0" />
        <mxCell id="QNxF9Y5TahNW1WKbqhld-34" value="Student" style="html=1;dashed=0;whiteSpace=wrap;fillColor=#0050ef;fontColor=#ffffff;strokeColor=#001DBC;" vertex="1" parent="1">
          <mxGeometry x="80" y="190" width="100" height="50" as="geometry" />
        </mxCell>
        <mxCell id="QNxF9Y5TahNW1WKbqhld-35" value="Register in&amp;nbsp;" style="shape=rhombus;html=1;dashed=0;whiteSpace=wrap;perimeter=rhombusPerimeter;fillColor=#f8cecc;strokeColor=#b85450;" vertex="1" parent="1">
          <mxGeometry x="340" y="175" width="100" height="80" as="geometry" />
        </mxCell>
        <mxCell id="QNxF9Y5TahNW1WKbqhld-36" value="Department" style="html=1;dashed=0;whiteSpace=wrap;fillColor=#0050ef;fontColor=#ffffff;strokeColor=#001DBC;" vertex="1" parent="1">
          <mxGeometry x="600" y="190" width="100" height="50" as="geometry" />
        </mxCell>
        <mxCell id="QNxF9Y5TahNW1WKbqhld-40" value="" style="endArrow=none;html=1;rounded=0;exitX=1;exitY=0.5;exitDx=0;exitDy=0;entryX=0;entryY=0.5;entryDx=0;entryDy=0;" edge="1" parent="1" source="QNxF9Y5TahNW1WKbqhld-35" target="QNxF9Y5TahNW1WKbqhld-36">
          <mxGeometry width="50" height="50" relative="1" as="geometry">
            <mxPoint x="400" y="310" as="sourcePoint" />
            <mxPoint x="450" y="260" as="targetPoint" />
          </mxGeometry>
        </mxCell>
        <mxCell id="QNxF9Y5TahNW1WKbqhld-46" value="" style="line;strokeWidth=2;direction=south;html=1;" vertex="1" parent="1">
          <mxGeometry x="550" y="205" width="10" height="20" as="geometry" />
        </mxCell>
        <mxCell id="QNxF9Y5TahNW1WKbqhld-50" value="Student_ID" style="ellipse;whiteSpace=wrap;html=1;align=center;fontStyle=4;" vertex="1" parent="1">
          <mxGeometry x="180" y="60" width="100" height="40" as="geometry" />
        </mxCell>
        <mxCell id="QNxF9Y5TahNW1WKbqhld-51" value="Dept_ID" style="ellipse;whiteSpace=wrap;html=1;align=center;fontStyle=4;" vertex="1" parent="1">
          <mxGeometry x="640" y="100" width="100" height="40" as="geometry" />
        </mxCell>
        <mxCell id="QNxF9Y5TahNW1WKbqhld-52" value="Name" style="ellipse;whiteSpace=wrap;html=1;align=center;" vertex="1" parent="1">
          <mxGeometry x="85" y="90" width="100" height="40" as="geometry" />
        </mxCell>
        <mxCell id="QNxF9Y5TahNW1WKbqhld-53" value="Gender" style="ellipse;whiteSpace=wrap;html=1;align=center;" vertex="1" parent="1">
          <mxGeometry x="230" y="110" width="100" height="40" as="geometry" />
        </mxCell>
        <mxCell id="QNxF9Y5TahNW1WKbqhld-54" value="DOB&amp;nbsp;" style="ellipse;whiteSpace=wrap;html=1;align=center;" vertex="1" parent="1">
          <mxGeometry x="185" y="270" width="100" height="40" as="geometry" />
        </mxCell>
        <mxCell id="QNxF9Y5TahNW1WKbqhld-55" value="Phone No" style="ellipse;whiteSpace=wrap;html=1;align=center;" vertex="1" parent="1">
          <mxGeometry x="-10" y="280" width="100" height="40" as="geometry" />
        </mxCell>
        <mxCell id="QNxF9Y5TahNW1WKbqhld-56" value="Age" style="ellipse;whiteSpace=wrap;html=1;align=center;dashed=1;" vertex="1" parent="1">
          <mxGeometry x="270" y="320" width="100" height="40" as="geometry" />
        </mxCell>
        <mxCell id="QNxF9Y5TahNW1WKbqhld-57" value="email" style="ellipse;whiteSpace=wrap;html=1;align=center;" vertex="1" parent="1">
          <mxGeometry x="-50" y="240" width="100" height="40" as="geometry" />
        </mxCell>
        <mxCell id="QNxF9Y5TahNW1WKbqhld-58" value="Address" style="ellipse;whiteSpace=wrap;html=1;align=center;" vertex="1" parent="1">
          <mxGeometry y="125" width="100" height="40" as="geometry" />
        </mxCell>
        <mxCell id="QNxF9Y5TahNW1WKbqhld-59" value="Home Address" style="ellipse;whiteSpace=wrap;html=1;align=center;" vertex="1" parent="1">
          <mxGeometry x="-130" y="70" width="100" height="40" as="geometry" />
        </mxCell>
        <mxCell id="QNxF9Y5TahNW1WKbqhld-60" value="Local Address" style="ellipse;whiteSpace=wrap;html=1;align=center;" vertex="1" parent="1">
          <mxGeometry x="15" y="30" width="100" height="40" as="geometry" />
        </mxCell>
        <mxCell id="QNxF9Y5TahNW1WKbqhld-61" value="Room No" style="ellipse;whiteSpace=wrap;html=1;align=center;" vertex="1" parent="1">
          <mxGeometry x="-110" y="-10" width="100" height="40" as="geometry" />
        </mxCell>
        <mxCell id="QNxF9Y5TahNW1WKbqhld-62" value="Hostel Name" style="ellipse;whiteSpace=wrap;html=1;align=center;" vertex="1" parent="1">
          <mxGeometry x="-15" y="-40" width="100" height="40" as="geometry" />
        </mxCell>
        <mxCell id="QNxF9Y5TahNW1WKbqhld-63" value="Pin" style="ellipse;whiteSpace=wrap;html=1;align=center;" vertex="1" parent="1">
          <mxGeometry x="-120" y="165" width="100" height="40" as="geometry" />
        </mxCell>
        <mxCell id="QNxF9Y5TahNW1WKbqhld-64" value="City" style="ellipse;whiteSpace=wrap;html=1;align=center;" vertex="1" parent="1">
          <mxGeometry x="-220" y="165" width="100" height="40" as="geometry" />
        </mxCell>
        <mxCell id="QNxF9Y5TahNW1WKbqhld-65" value="Street" style="ellipse;whiteSpace=wrap;html=1;align=center;" vertex="1" parent="1">
          <mxGeometry x="-320" y="140" width="100" height="40" as="geometry" />
        </mxCell>
        <mxCell id="QNxF9Y5TahNW1WKbqhld-66" value="House No" style="ellipse;whiteSpace=wrap;html=1;align=center;" vertex="1" parent="1">
          <mxGeometry x="-310" y="90" width="100" height="40" as="geometry" />
        </mxCell>
        <mxCell id="QNxF9Y5TahNW1WKbqhld-67" value="" style="endArrow=none;html=1;rounded=0;exitX=1;exitY=0.5;exitDx=0;exitDy=0;entryX=0.5;entryY=1;entryDx=0;entryDy=0;" edge="1" parent="1" source="QNxF9Y5TahNW1WKbqhld-97" target="QNxF9Y5TahNW1WKbqhld-103">
          <mxGeometry width="50" height="50" relative="1" as="geometry">
            <mxPoint x="620" y="430" as="sourcePoint" />
            <mxPoint x="670" y="380" as="targetPoint" />
          </mxGeometry>
        </mxCell>
        <mxCell id="QNxF9Y5TahNW1WKbqhld-68" value="" style="endArrow=none;html=1;rounded=0;exitX=1;exitY=0.5;exitDx=0;exitDy=0;entryX=0.25;entryY=0;entryDx=0;entryDy=0;" edge="1" parent="1" source="QNxF9Y5TahNW1WKbqhld-104" target="QNxF9Y5TahNW1WKbqhld-97">
          <mxGeometry width="50" height="50" relative="1" as="geometry">
            <mxPoint x="590" y="430" as="sourcePoint" />
            <mxPoint x="640" y="380" as="targetPoint" />
          </mxGeometry>
        </mxCell>
        <mxCell id="QNxF9Y5TahNW1WKbqhld-69" value="" style="endArrow=none;html=1;rounded=0;exitX=1;exitY=0.5;exitDx=0;exitDy=0;entryX=0;entryY=0.25;entryDx=0;entryDy=0;" edge="1" parent="1" source="QNxF9Y5TahNW1WKbqhld-102" target="QNxF9Y5TahNW1WKbqhld-97">
          <mxGeometry width="50" height="50" relative="1" as="geometry">
            <mxPoint x="10" y="310" as="sourcePoint" />
            <mxPoint x="60" y="260" as="targetPoint" />
          </mxGeometry>
        </mxCell>
        <mxCell id="QNxF9Y5TahNW1WKbqhld-70" value="" style="endArrow=none;html=1;rounded=0;exitX=0.5;exitY=0;exitDx=0;exitDy=0;entryX=0;entryY=0.5;entryDx=0;entryDy=0;" edge="1" parent="1" source="QNxF9Y5TahNW1WKbqhld-36" target="QNxF9Y5TahNW1WKbqhld-95">
          <mxGeometry width="50" height="50" relative="1" as="geometry">
            <mxPoint x="710" y="280" as="sourcePoint" />
            <mxPoint x="760" y="230" as="targetPoint" />
          </mxGeometry>
        </mxCell>
        <mxCell id="QNxF9Y5TahNW1WKbqhld-71" value="" style="endArrow=none;html=1;rounded=0;exitX=1;exitY=0.5;exitDx=0;exitDy=0;entryX=0.5;entryY=0;entryDx=0;entryDy=0;" edge="1" parent="1" source="QNxF9Y5TahNW1WKbqhld-94" target="QNxF9Y5TahNW1WKbqhld-36">
          <mxGeometry width="50" height="50" relative="1" as="geometry">
            <mxPoint x="530" y="305" as="sourcePoint" />
            <mxPoint x="580" y="255" as="targetPoint" />
          </mxGeometry>
        </mxCell>
        <mxCell id="QNxF9Y5TahNW1WKbqhld-72" value="" style="endArrow=none;html=1;rounded=0;exitX=0.5;exitY=1;exitDx=0;exitDy=0;entryX=0.57;entryY=0;entryDx=0;entryDy=0;entryPerimeter=0;" edge="1" parent="1" source="QNxF9Y5TahNW1WKbqhld-51" target="QNxF9Y5TahNW1WKbqhld-36">
          <mxGeometry width="50" height="50" relative="1" as="geometry">
            <mxPoint x="600" y="330" as="sourcePoint" />
            <mxPoint x="650" y="280" as="targetPoint" />
          </mxGeometry>
        </mxCell>
        <mxCell id="QNxF9Y5TahNW1WKbqhld-73" value="" style="endArrow=none;html=1;rounded=0;exitX=1;exitY=1;exitDx=0;exitDy=0;entryX=0.5;entryY=0;entryDx=0;entryDy=0;" edge="1" parent="1" source="QNxF9Y5TahNW1WKbqhld-92" target="QNxF9Y5TahNW1WKbqhld-36">
          <mxGeometry width="50" height="50" relative="1" as="geometry">
            <mxPoint x="560" y="330" as="sourcePoint" />
            <mxPoint x="610" y="280" as="targetPoint" />
          </mxGeometry>
        </mxCell>
        <mxCell id="QNxF9Y5TahNW1WKbqhld-74" value="" style="endArrow=none;html=1;rounded=0;entryX=0;entryY=0;entryDx=0;entryDy=0;exitX=1;exitY=0.5;exitDx=0;exitDy=0;" edge="1" parent="1" source="QNxF9Y5TahNW1WKbqhld-59" target="QNxF9Y5TahNW1WKbqhld-58">
          <mxGeometry width="50" height="50" relative="1" as="geometry">
            <mxPoint x="-130" y="200" as="sourcePoint" />
            <mxPoint x="-80" y="150" as="targetPoint" />
          </mxGeometry>
        </mxCell>
        <mxCell id="QNxF9Y5TahNW1WKbqhld-75" value="" style="endArrow=none;html=1;rounded=0;exitX=0;exitY=0;exitDx=0;exitDy=0;entryX=0.5;entryY=1;entryDx=0;entryDy=0;" edge="1" parent="1" source="QNxF9Y5TahNW1WKbqhld-58" target="QNxF9Y5TahNW1WKbqhld-60">
          <mxGeometry width="50" height="50" relative="1" as="geometry">
            <mxPoint x="-80" y="160" as="sourcePoint" />
            <mxPoint x="-30" y="110" as="targetPoint" />
          </mxGeometry>
        </mxCell>
        <mxCell id="QNxF9Y5TahNW1WKbqhld-76" value="" style="endArrow=none;html=1;rounded=0;exitX=1;exitY=0.5;exitDx=0;exitDy=0;entryX=0.33;entryY=-0.1;entryDx=0;entryDy=0;entryPerimeter=0;" edge="1" parent="1" source="QNxF9Y5TahNW1WKbqhld-62" target="QNxF9Y5TahNW1WKbqhld-60">
          <mxGeometry width="50" height="50" relative="1" as="geometry">
            <mxPoint x="-165" y="95" as="sourcePoint" />
            <mxPoint x="-115" y="45" as="targetPoint" />
          </mxGeometry>
        </mxCell>
        <mxCell id="QNxF9Y5TahNW1WKbqhld-77" value="" style="endArrow=none;html=1;rounded=0;exitX=1;exitY=0.5;exitDx=0;exitDy=0;entryX=0;entryY=0.5;entryDx=0;entryDy=0;" edge="1" parent="1" source="QNxF9Y5TahNW1WKbqhld-61" target="QNxF9Y5TahNW1WKbqhld-60">
          <mxGeometry width="50" height="50" relative="1" as="geometry">
            <mxPoint x="10" y="310" as="sourcePoint" />
            <mxPoint x="60" y="260" as="targetPoint" />
          </mxGeometry>
        </mxCell>
        <mxCell id="QNxF9Y5TahNW1WKbqhld-78" value="" style="endArrow=none;html=1;rounded=0;exitX=1.03;exitY=0.325;exitDx=0;exitDy=0;exitPerimeter=0;entryX=0;entryY=0.5;entryDx=0;entryDy=0;" edge="1" parent="1" source="QNxF9Y5TahNW1WKbqhld-66" target="QNxF9Y5TahNW1WKbqhld-59">
          <mxGeometry width="50" height="50" relative="1" as="geometry">
            <mxPoint x="-230" y="220" as="sourcePoint" />
            <mxPoint x="-180" y="170" as="targetPoint" />
          </mxGeometry>
        </mxCell>
        <mxCell id="QNxF9Y5TahNW1WKbqhld-79" value="" style="endArrow=none;html=1;rounded=0;entryX=0;entryY=1;entryDx=0;entryDy=0;exitX=1;exitY=0;exitDx=0;exitDy=0;" edge="1" parent="1" source="QNxF9Y5TahNW1WKbqhld-65" target="QNxF9Y5TahNW1WKbqhld-59">
          <mxGeometry width="50" height="50" relative="1" as="geometry">
            <mxPoint x="-240" y="280" as="sourcePoint" />
            <mxPoint x="60" y="260" as="targetPoint" />
          </mxGeometry>
        </mxCell>
        <mxCell id="QNxF9Y5TahNW1WKbqhld-80" value="" style="endArrow=none;html=1;rounded=0;exitX=0.7;exitY=0;exitDx=0;exitDy=0;exitPerimeter=0;entryX=0.4;entryY=0.875;entryDx=0;entryDy=0;entryPerimeter=0;" edge="1" parent="1" source="QNxF9Y5TahNW1WKbqhld-64" target="QNxF9Y5TahNW1WKbqhld-59">
          <mxGeometry width="50" height="50" relative="1" as="geometry">
            <mxPoint x="-210" y="290" as="sourcePoint" />
            <mxPoint x="-160" y="240" as="targetPoint" />
          </mxGeometry>
        </mxCell>
        <mxCell id="QNxF9Y5TahNW1WKbqhld-81" value="" style="endArrow=none;html=1;rounded=0;exitX=0.58;exitY=-0.05;exitDx=0;exitDy=0;exitPerimeter=0;entryX=0.5;entryY=1;entryDx=0;entryDy=0;" edge="1" parent="1" source="QNxF9Y5TahNW1WKbqhld-63" target="QNxF9Y5TahNW1WKbqhld-59">
          <mxGeometry width="50" height="50" relative="1" as="geometry">
            <mxPoint x="-120" y="305" as="sourcePoint" />
            <mxPoint x="-70" y="255" as="targetPoint" />
          </mxGeometry>
        </mxCell>
        <mxCell id="QNxF9Y5TahNW1WKbqhld-82" value="" style="endArrow=none;html=1;rounded=0;entryX=0.5;entryY=0;entryDx=0;entryDy=0;exitX=0.5;exitY=1;exitDx=0;exitDy=0;" edge="1" parent="1" source="QNxF9Y5TahNW1WKbqhld-54" target="QNxF9Y5TahNW1WKbqhld-56">
          <mxGeometry width="50" height="50" relative="1" as="geometry">
            <mxPoint x="105" y="390" as="sourcePoint" />
            <mxPoint x="155" y="340" as="targetPoint" />
          </mxGeometry>
        </mxCell>
        <mxCell id="QNxF9Y5TahNW1WKbqhld-83" value="" style="endArrow=none;html=1;rounded=0;entryX=0.5;entryY=0;entryDx=0;entryDy=0;exitX=0.43;exitY=0.98;exitDx=0;exitDy=0;exitPerimeter=0;" edge="1" parent="1" source="QNxF9Y5TahNW1WKbqhld-34" target="QNxF9Y5TahNW1WKbqhld-54">
          <mxGeometry width="50" height="50" relative="1" as="geometry">
            <mxPoint x="100" y="370" as="sourcePoint" />
            <mxPoint x="150" y="320" as="targetPoint" />
          </mxGeometry>
        </mxCell>
        <mxCell id="QNxF9Y5TahNW1WKbqhld-84" value="" style="endArrow=none;html=1;rounded=0;exitX=0.5;exitY=0;exitDx=0;exitDy=0;entryX=0;entryY=1;entryDx=0;entryDy=0;" edge="1" parent="1" source="QNxF9Y5TahNW1WKbqhld-34" target="QNxF9Y5TahNW1WKbqhld-53">
          <mxGeometry width="50" height="50" relative="1" as="geometry">
            <mxPoint x="140" y="160" as="sourcePoint" />
            <mxPoint x="190" y="110" as="targetPoint" />
          </mxGeometry>
        </mxCell>
        <mxCell id="QNxF9Y5TahNW1WKbqhld-85" value="" style="endArrow=none;html=1;rounded=0;exitX=0.5;exitY=0;exitDx=0;exitDy=0;entryX=0.5;entryY=1;entryDx=0;entryDy=0;" edge="1" parent="1" source="QNxF9Y5TahNW1WKbqhld-34" target="QNxF9Y5TahNW1WKbqhld-50">
          <mxGeometry width="50" height="50" relative="1" as="geometry">
            <mxPoint x="130" y="170" as="sourcePoint" />
            <mxPoint x="180" y="120" as="targetPoint" />
          </mxGeometry>
        </mxCell>
        <mxCell id="QNxF9Y5TahNW1WKbqhld-86" value="" style="endArrow=none;html=1;rounded=0;exitX=1;exitY=0.5;exitDx=0;exitDy=0;entryX=0.5;entryY=0;entryDx=0;entryDy=0;" edge="1" parent="1" source="QNxF9Y5TahNW1WKbqhld-52" target="QNxF9Y5TahNW1WKbqhld-34">
          <mxGeometry width="50" height="50" relative="1" as="geometry">
            <mxPoint x="100" y="175" as="sourcePoint" />
            <mxPoint x="150" y="125" as="targetPoint" />
          </mxGeometry>
        </mxCell>
        <mxCell id="QNxF9Y5TahNW1WKbqhld-87" value="" style="endArrow=none;html=1;rounded=0;exitX=1;exitY=0;exitDx=0;exitDy=0;entryX=0.5;entryY=1;entryDx=0;entryDy=0;" edge="1" parent="1" source="QNxF9Y5TahNW1WKbqhld-55" target="QNxF9Y5TahNW1WKbqhld-34">
          <mxGeometry width="50" height="50" relative="1" as="geometry">
            <mxPoint x="105" y="320" as="sourcePoint" />
            <mxPoint x="155" y="270" as="targetPoint" />
          </mxGeometry>
        </mxCell>
        <mxCell id="QNxF9Y5TahNW1WKbqhld-88" value="" style="endArrow=none;html=1;rounded=0;entryX=0;entryY=0.75;entryDx=0;entryDy=0;exitX=1;exitY=0.5;exitDx=0;exitDy=0;" edge="1" parent="1" source="QNxF9Y5TahNW1WKbqhld-57" target="QNxF9Y5TahNW1WKbqhld-34">
          <mxGeometry width="50" height="50" relative="1" as="geometry">
            <mxPoint x="10" y="290" as="sourcePoint" />
            <mxPoint x="60" y="240" as="targetPoint" />
          </mxGeometry>
        </mxCell>
        <mxCell id="QNxF9Y5TahNW1WKbqhld-89" value="" style="endArrow=none;html=1;rounded=0;entryX=0;entryY=0.5;entryDx=0;entryDy=0;" edge="1" parent="1" source="QNxF9Y5TahNW1WKbqhld-58" target="QNxF9Y5TahNW1WKbqhld-34">
          <mxGeometry width="50" height="50" relative="1" as="geometry">
            <mxPoint x="5" y="270" as="sourcePoint" />
            <mxPoint x="55" y="220" as="targetPoint" />
          </mxGeometry>
        </mxCell>
        <mxCell id="QNxF9Y5TahNW1WKbqhld-92" value="Dept_Name" style="ellipse;whiteSpace=wrap;html=1;align=center;" vertex="1" parent="1">
          <mxGeometry x="520" y="100" width="100" height="40" as="geometry" />
        </mxCell>
        <mxCell id="QNxF9Y5TahNW1WKbqhld-93" value="" style="edgeStyle=entityRelationEdgeStyle;fontSize=12;html=1;endArrow=ERoneToMany;rounded=0;entryX=1;entryY=0.5;entryDx=0;entryDy=0;exitX=0;exitY=0.5;exitDx=0;exitDy=0;" edge="1" parent="1" source="QNxF9Y5TahNW1WKbqhld-35" target="QNxF9Y5TahNW1WKbqhld-34">
          <mxGeometry width="100" height="100" relative="1" as="geometry">
            <mxPoint x="350" y="340" as="sourcePoint" />
            <mxPoint x="450" y="240" as="targetPoint" />
          </mxGeometry>
        </mxCell>
        <mxCell id="QNxF9Y5TahNW1WKbqhld-94" value="Location" style="ellipse;whiteSpace=wrap;html=1;align=center;" vertex="1" parent="1">
          <mxGeometry x="470" y="150" width="100" height="40" as="geometry" />
        </mxCell>
        <mxCell id="QNxF9Y5TahNW1WKbqhld-95" value="Phone No&amp;nbsp;" style="ellipse;whiteSpace=wrap;html=1;align=center;" vertex="1" parent="1">
          <mxGeometry x="740" y="140" width="100" height="40" as="geometry" />
        </mxCell>
        <mxCell id="QNxF9Y5TahNW1WKbqhld-96" value="Consist of&amp;nbsp;" style="shape=rhombus;perimeter=rhombusPerimeter;whiteSpace=wrap;html=1;align=center;fillColor=#f8cecc;strokeColor=#b85450;" vertex="1" parent="1">
          <mxGeometry x="590" y="300" width="120" height="60" as="geometry" />
        </mxCell>
        <mxCell id="QNxF9Y5TahNW1WKbqhld-97" value="Professor" style="whiteSpace=wrap;html=1;align=center;fillColor=#0050ef;fontColor=#ffffff;strokeColor=#001DBC;" vertex="1" parent="1">
          <mxGeometry x="600" y="460" width="100" height="40" as="geometry" />
        </mxCell>
        <mxCell id="QNxF9Y5TahNW1WKbqhld-98" value="" style="edgeStyle=entityRelationEdgeStyle;fontSize=12;html=1;endArrow=ERmany;rounded=0;exitX=0.5;exitY=1;exitDx=0;exitDy=0;entryX=0.5;entryY=0;entryDx=0;entryDy=0;" edge="1" parent="1" source="QNxF9Y5TahNW1WKbqhld-96" target="QNxF9Y5TahNW1WKbqhld-97">
          <mxGeometry width="100" height="100" relative="1" as="geometry">
            <mxPoint x="350" y="340" as="sourcePoint" />
            <mxPoint x="450" y="240" as="targetPoint" />
          </mxGeometry>
        </mxCell>
        <mxCell id="QNxF9Y5TahNW1WKbqhld-99" value="" style="endArrow=none;html=1;rounded=0;exitX=0.5;exitY=0;exitDx=0;exitDy=0;entryX=0.5;entryY=1;entryDx=0;entryDy=0;" edge="1" parent="1" source="QNxF9Y5TahNW1WKbqhld-100" target="QNxF9Y5TahNW1WKbqhld-36">
          <mxGeometry width="50" height="50" relative="1" as="geometry">
            <mxPoint x="370" y="310" as="sourcePoint" />
            <mxPoint x="420" y="260" as="targetPoint" />
          </mxGeometry>
        </mxCell>
        <mxCell id="QNxF9Y5TahNW1WKbqhld-101" value="" style="endArrow=none;html=1;rounded=0;exitX=0.5;exitY=0;exitDx=0;exitDy=0;entryX=0.5;entryY=1;entryDx=0;entryDy=0;" edge="1" parent="1" source="QNxF9Y5TahNW1WKbqhld-96" target="QNxF9Y5TahNW1WKbqhld-100">
          <mxGeometry width="50" height="50" relative="1" as="geometry">
            <mxPoint x="650" y="300" as="sourcePoint" />
            <mxPoint x="650" y="240" as="targetPoint" />
          </mxGeometry>
        </mxCell>
        <mxCell id="QNxF9Y5TahNW1WKbqhld-100" value="" style="line;strokeWidth=2;html=1;" vertex="1" parent="1">
          <mxGeometry x="640" y="245" width="20" height="10" as="geometry" />
        </mxCell>
        <mxCell id="QNxF9Y5TahNW1WKbqhld-102" value="Emp_ID" style="ellipse;whiteSpace=wrap;html=1;align=center;fontStyle=4;" vertex="1" parent="1">
          <mxGeometry x="430" y="440" width="100" height="40" as="geometry" />
        </mxCell>
        <mxCell id="QNxF9Y5TahNW1WKbqhld-103" value="Phone No" style="ellipse;whiteSpace=wrap;html=1;align=center;" vertex="1" parent="1">
          <mxGeometry x="720" y="390" width="100" height="40" as="geometry" />
        </mxCell>
        <mxCell id="QNxF9Y5TahNW1WKbqhld-104" value="Emp_Name" style="ellipse;whiteSpace=wrap;html=1;align=center;" vertex="1" parent="1">
          <mxGeometry x="480" y="390" width="100" height="40" as="geometry" />
        </mxCell>
        <mxCell id="QNxF9Y5TahNW1WKbqhld-105" value="Relationship" style="shape=rhombus;perimeter=rhombusPerimeter;whiteSpace=wrap;html=1;align=center;fillColor=#dae8fc;strokeColor=#6c8ebf;" vertex="1" parent="1">
          <mxGeometry x="70" y="330" width="120" height="60" as="geometry" />
        </mxCell>
        <mxCell id="QNxF9Y5TahNW1WKbqhld-106" value="Course" style="whiteSpace=wrap;html=1;align=center;fillColor=#0050ef;fontColor=#ffffff;strokeColor=#001DBC;" vertex="1" parent="1">
          <mxGeometry x="80" y="480" width="100" height="40" as="geometry" />
        </mxCell>
        <mxCell id="QNxF9Y5TahNW1WKbqhld-108" value="" style="edgeStyle=entityRelationEdgeStyle;fontSize=12;html=1;endArrow=ERoneToMany;rounded=0;entryX=0.6;entryY=0;entryDx=0;entryDy=0;entryPerimeter=0;exitX=0.5;exitY=1;exitDx=0;exitDy=0;" edge="1" parent="1" source="QNxF9Y5TahNW1WKbqhld-105" target="QNxF9Y5TahNW1WKbqhld-106">
          <mxGeometry width="100" height="100" relative="1" as="geometry">
            <mxPoint x="-10" y="340" as="sourcePoint" />
            <mxPoint x="90" y="240" as="targetPoint" />
          </mxGeometry>
        </mxCell>
        <mxCell id="QNxF9Y5TahNW1WKbqhld-109" value="" style="edgeStyle=entityRelationEdgeStyle;fontSize=12;html=1;endArrow=ERmany;rounded=0;exitX=0.5;exitY=0;exitDx=0;exitDy=0;entryX=0;entryY=0.5;entryDx=0;entryDy=0;" edge="1" parent="1" source="QNxF9Y5TahNW1WKbqhld-105" target="QNxF9Y5TahNW1WKbqhld-34">
          <mxGeometry width="100" height="100" relative="1" as="geometry">
            <mxPoint x="-10" y="340" as="sourcePoint" />
            <mxPoint x="90" y="240" as="targetPoint" />
          </mxGeometry>
        </mxCell>
        <mxCell id="QNxF9Y5TahNW1WKbqhld-110" value="Course_ID" style="ellipse;whiteSpace=wrap;html=1;align=center;fontStyle=4;" vertex="1" parent="1">
          <mxGeometry x="-70" y="380" width="100" height="40" as="geometry" />
        </mxCell>
        <mxCell id="QNxF9Y5TahNW1WKbqhld-111" value="Course Name" style="ellipse;whiteSpace=wrap;html=1;align=center;" vertex="1" parent="1">
          <mxGeometry x="-80" y="430" width="100" height="40" as="geometry" />
        </mxCell>
        <mxCell id="QNxF9Y5TahNW1WKbqhld-112" value="Department_Offered" style="ellipse;whiteSpace=wrap;html=1;align=center;" vertex="1" parent="1">
          <mxGeometry x="-100" y="480" width="120" height="40" as="geometry" />
        </mxCell>
        <mxCell id="QNxF9Y5TahNW1WKbqhld-113" value="" style="endArrow=none;html=1;rounded=0;exitX=1;exitY=0.5;exitDx=0;exitDy=0;entryX=0;entryY=0.5;entryDx=0;entryDy=0;" edge="1" parent="1" source="QNxF9Y5TahNW1WKbqhld-112" target="QNxF9Y5TahNW1WKbqhld-106">
          <mxGeometry width="50" height="50" relative="1" as="geometry">
            <mxPoint x="50" y="430" as="sourcePoint" />
            <mxPoint x="100" y="380" as="targetPoint" />
          </mxGeometry>
        </mxCell>
        <mxCell id="QNxF9Y5TahNW1WKbqhld-114" value="" style="endArrow=none;html=1;rounded=0;exitX=1;exitY=0.5;exitDx=0;exitDy=0;entryX=0;entryY=0;entryDx=0;entryDy=0;" edge="1" parent="1" source="QNxF9Y5TahNW1WKbqhld-111" target="QNxF9Y5TahNW1WKbqhld-106">
          <mxGeometry width="50" height="50" relative="1" as="geometry">
            <mxPoint x="40" y="450" as="sourcePoint" />
            <mxPoint x="90" y="400" as="targetPoint" />
          </mxGeometry>
        </mxCell>
        <mxCell id="QNxF9Y5TahNW1WKbqhld-115" value="" style="endArrow=none;html=1;rounded=0;exitX=0.25;exitY=0;exitDx=0;exitDy=0;entryX=1;entryY=0.5;entryDx=0;entryDy=0;" edge="1" parent="1" source="QNxF9Y5TahNW1WKbqhld-106" target="QNxF9Y5TahNW1WKbqhld-110">
          <mxGeometry width="50" height="50" relative="1" as="geometry">
            <mxPoint x="20" y="340" as="sourcePoint" />
            <mxPoint x="70" y="290" as="targetPoint" />
          </mxGeometry>
        </mxCell>
        <mxCell id="QNxF9Y5TahNW1WKbqhld-116" value="Can Have" style="rhombus;whiteSpace=wrap;html=1;fillColor=#f8cecc;strokeColor=#b85450;" vertex="1" parent="1">
          <mxGeometry x="70" y="590" width="120" height="100" as="geometry" />
        </mxCell>
        <mxCell id="QNxF9Y5TahNW1WKbqhld-117" value="Section" style="rounded=0;whiteSpace=wrap;html=1;fillColor=#0050ef;fontColor=#ffffff;strokeColor=#001DBC;" vertex="1" parent="1">
          <mxGeometry x="80" y="760" width="120" height="60" as="geometry" />
        </mxCell>
        <mxCell id="QNxF9Y5TahNW1WKbqhld-118" value="" style="endArrow=none;html=1;rounded=0;exitX=0.5;exitY=0;exitDx=0;exitDy=0;entryX=0.5;entryY=1;entryDx=0;entryDy=0;" edge="1" parent="1" source="QNxF9Y5TahNW1WKbqhld-120" target="QNxF9Y5TahNW1WKbqhld-106">
          <mxGeometry width="50" height="50" relative="1" as="geometry">
            <mxPoint x="20" y="540" as="sourcePoint" />
            <mxPoint x="70" y="490" as="targetPoint" />
          </mxGeometry>
        </mxCell>
        <mxCell id="QNxF9Y5TahNW1WKbqhld-119" value="" style="edgeStyle=entityRelationEdgeStyle;fontSize=12;html=1;endArrow=ERoneToMany;rounded=0;entryX=0.583;entryY=-0.033;entryDx=0;entryDy=0;entryPerimeter=0;exitX=0.5;exitY=1;exitDx=0;exitDy=0;" edge="1" parent="1" source="QNxF9Y5TahNW1WKbqhld-116" target="QNxF9Y5TahNW1WKbqhld-117">
          <mxGeometry width="100" height="100" relative="1" as="geometry">
            <mxPoint x="-10" y="570" as="sourcePoint" />
            <mxPoint x="90" y="470" as="targetPoint" />
          </mxGeometry>
        </mxCell>
        <mxCell id="QNxF9Y5TahNW1WKbqhld-121" value="" style="endArrow=none;html=1;rounded=0;exitX=0.5;exitY=0;exitDx=0;exitDy=0;entryX=0.5;entryY=1;entryDx=0;entryDy=0;" edge="1" parent="1" source="QNxF9Y5TahNW1WKbqhld-116" target="QNxF9Y5TahNW1WKbqhld-120">
          <mxGeometry width="50" height="50" relative="1" as="geometry">
            <mxPoint x="130" y="590" as="sourcePoint" />
            <mxPoint x="130" y="520" as="targetPoint" />
          </mxGeometry>
        </mxCell>
        <mxCell id="QNxF9Y5TahNW1WKbqhld-120" value="" style="line;strokeWidth=2;html=1;" vertex="1" parent="1">
          <mxGeometry x="115" y="530" width="30" height="10" as="geometry" />
        </mxCell>
        <mxCell id="QNxF9Y5TahNW1WKbqhld-123" value="Room No" style="ellipse;whiteSpace=wrap;html=1;align=center;" vertex="1" parent="1">
          <mxGeometry x="220" y="740" width="100" height="40" as="geometry" />
        </mxCell>
        <mxCell id="QNxF9Y5TahNW1WKbqhld-124" value="Section_ID" style="ellipse;whiteSpace=wrap;html=1;align=center;fontStyle=4;" vertex="1" parent="1">
          <mxGeometry x="185" y="680" width="100" height="40" as="geometry" />
        </mxCell>
        <mxCell id="QNxF9Y5TahNW1WKbqhld-125" value="" style="endArrow=none;html=1;rounded=0;entryX=0;entryY=0.5;entryDx=0;entryDy=0;exitX=1;exitY=0.25;exitDx=0;exitDy=0;" edge="1" parent="1" source="QNxF9Y5TahNW1WKbqhld-117" target="QNxF9Y5TahNW1WKbqhld-123">
          <mxGeometry width="50" height="50" relative="1" as="geometry">
            <mxPoint x="20" y="740" as="sourcePoint" />
            <mxPoint x="70" y="690" as="targetPoint" />
          </mxGeometry>
        </mxCell>
        <mxCell id="QNxF9Y5TahNW1WKbqhld-126" value="" style="endArrow=none;html=1;rounded=0;exitX=0.5;exitY=1;exitDx=0;exitDy=0;entryX=0.825;entryY=-0.033;entryDx=0;entryDy=0;entryPerimeter=0;" edge="1" parent="1" source="QNxF9Y5TahNW1WKbqhld-124" target="QNxF9Y5TahNW1WKbqhld-117">
          <mxGeometry width="50" height="50" relative="1" as="geometry">
            <mxPoint x="20" y="740" as="sourcePoint" />
            <mxPoint x="70" y="690" as="targetPoint" />
          </mxGeometry>
        </mxCell>
        <mxCell id="QNxF9Y5TahNW1WKbqhld-127" style="edgeStyle=orthogonalEdgeStyle;rounded=0;orthogonalLoop=1;jettySize=auto;html=1;exitX=0.5;exitY=1;exitDx=0;exitDy=0;" edge="1" parent="1" source="QNxF9Y5TahNW1WKbqhld-58" target="QNxF9Y5TahNW1WKbqhld-58">
          <mxGeometry relative="1" as="geometry" />
        </mxCell>
        <mxCell id="QNxF9Y5TahNW1WKbqhld-128" value="Head of&amp;nbsp;" style="rhombus;whiteSpace=wrap;html=1;fillColor=#f8cecc;strokeColor=#b85450;" vertex="1" parent="1">
          <mxGeometry x="900" y="300" width="80" height="80" as="geometry" />
        </mxCell>
        <mxCell id="QNxF9Y5TahNW1WKbqhld-129" value="" style="endArrow=none;html=1;rounded=0;exitX=0.5;exitY=0;exitDx=0;exitDy=0;entryX=1;entryY=0.5;entryDx=0;entryDy=0;" edge="1" parent="1" source="QNxF9Y5TahNW1WKbqhld-128" target="QNxF9Y5TahNW1WKbqhld-36">
          <mxGeometry width="50" height="50" relative="1" as="geometry">
            <mxPoint x="630" y="250" as="sourcePoint" />
            <mxPoint x="680" y="200" as="targetPoint" />
            <Array as="points">
              <mxPoint x="940" y="215" />
            </Array>
          </mxGeometry>
        </mxCell>
        <mxCell id="QNxF9Y5TahNW1WKbqhld-130" value="" style="endArrow=none;html=1;rounded=0;exitX=1;exitY=0.5;exitDx=0;exitDy=0;entryX=0.5;entryY=1;entryDx=0;entryDy=0;" edge="1" parent="1" source="QNxF9Y5TahNW1WKbqhld-97" target="QNxF9Y5TahNW1WKbqhld-128">
          <mxGeometry width="50" height="50" relative="1" as="geometry">
            <mxPoint x="630" y="430" as="sourcePoint" />
            <mxPoint x="680" y="380" as="targetPoint" />
            <Array as="points">
              <mxPoint x="940" y="480" />
            </Array>
          </mxGeometry>
        </mxCell>
        <mxCell id="QNxF9Y5TahNW1WKbqhld-133" value="" style="line;strokeWidth=2;direction=south;html=1;" vertex="1" parent="1">
          <mxGeometry x="770" y="470" width="10" height="30" as="geometry" />
        </mxCell>
        <mxCell id="QNxF9Y5TahNW1WKbqhld-134" value="" style="line;strokeWidth=2;direction=south;html=1;" vertex="1" parent="1">
          <mxGeometry x="785" y="200" width="10" height="30" as="geometry" />
        </mxCell>
        <mxCell id="QNxF9Y5TahNW1WKbqhld-138" value="Can Teach" style="rhombus;whiteSpace=wrap;html=1;fillColor=#f8cecc;strokeColor=#b85450;" vertex="1" parent="1">
          <mxGeometry x="610" y="710" width="80" height="80" as="geometry" />
        </mxCell>
        <mxCell id="QNxF9Y5TahNW1WKbqhld-139" value="" style="endArrow=none;html=1;rounded=0;exitX=0.5;exitY=0;exitDx=0;exitDy=0;entryX=0.5;entryY=1;entryDx=0;entryDy=0;" edge="1" parent="1" source="QNxF9Y5TahNW1WKbqhld-138" target="QNxF9Y5TahNW1WKbqhld-97">
          <mxGeometry width="50" height="50" relative="1" as="geometry">
            <mxPoint x="410" y="530" as="sourcePoint" />
            <mxPoint x="460" y="480" as="targetPoint" />
          </mxGeometry>
        </mxCell>
        <mxCell id="QNxF9Y5TahNW1WKbqhld-140" value="" style="edgeStyle=entityRelationEdgeStyle;fontSize=12;html=1;endArrow=ERoneToMany;rounded=0;entryX=1;entryY=0.5;entryDx=0;entryDy=0;exitX=0.5;exitY=1;exitDx=0;exitDy=0;" edge="1" parent="1" source="QNxF9Y5TahNW1WKbqhld-138" target="QNxF9Y5TahNW1WKbqhld-117">
          <mxGeometry width="100" height="100" relative="1" as="geometry">
            <mxPoint x="390" y="700" as="sourcePoint" />
            <mxPoint x="490" y="600" as="targetPoint" />
            <Array as="points">
              <mxPoint x="430" y="800" />
              <mxPoint x="430" y="790" />
            </Array>
          </mxGeometry>
        </mxCell>
        <mxCell id="QNxF9Y5TahNW1WKbqhld-141" value="Can Have" style="rhombus;whiteSpace=wrap;html=1;fillColor=#f8cecc;strokeColor=#b85450;" vertex="1" parent="1">
          <mxGeometry x="300" y="460" width="80" height="80" as="geometry" />
        </mxCell>
        <mxCell id="QNxF9Y5TahNW1WKbqhld-142" value="Prerequsites" style="rounded=0;whiteSpace=wrap;html=1;fillColor=#0050ef;fontColor=#ffffff;strokeColor=#001DBC;" vertex="1" parent="1">
          <mxGeometry x="280" y="600" width="120" height="60" as="geometry" />
        </mxCell>
        <mxCell id="QNxF9Y5TahNW1WKbqhld-143" value="" style="endArrow=none;html=1;rounded=0;exitX=1;exitY=0.5;exitDx=0;exitDy=0;entryX=0;entryY=0.5;entryDx=0;entryDy=0;" edge="1" parent="1" source="QNxF9Y5TahNW1WKbqhld-106" target="QNxF9Y5TahNW1WKbqhld-141">
          <mxGeometry width="50" height="50" relative="1" as="geometry">
            <mxPoint x="240" y="510" as="sourcePoint" />
            <mxPoint x="290" y="460" as="targetPoint" />
          </mxGeometry>
        </mxCell>
        <mxCell id="QNxF9Y5TahNW1WKbqhld-144" value="" style="edgeStyle=entityRelationEdgeStyle;fontSize=12;html=1;endArrow=ERoneToMany;rounded=0;entryX=0.5;entryY=0;entryDx=0;entryDy=0;exitX=0.5;exitY=1;exitDx=0;exitDy=0;" edge="1" parent="1" source="QNxF9Y5TahNW1WKbqhld-141" target="QNxF9Y5TahNW1WKbqhld-142">
          <mxGeometry width="100" height="100" relative="1" as="geometry">
            <mxPoint x="210" y="540" as="sourcePoint" />
            <mxPoint x="310" y="440" as="targetPoint" />
          </mxGeometry>
        </mxCell>
        <mxCell id="QNxF9Y5TahNW1WKbqhld-146" value="Can Have" style="rhombus;whiteSpace=wrap;html=1;fillColor=#f8cecc;strokeColor=#b85450;" vertex="1" parent="1">
          <mxGeometry x="840" y="560" width="80" height="80" as="geometry" />
        </mxCell>
        <mxCell id="QNxF9Y5TahNW1WKbqhld-147" value="Project" style="rounded=0;whiteSpace=wrap;html=1;fillColor=#0050ef;fontColor=#ffffff;strokeColor=#001DBC;" vertex="1" parent="1">
          <mxGeometry x="1090" y="570" width="120" height="60" as="geometry" />
        </mxCell>
        <mxCell id="QNxF9Y5TahNW1WKbqhld-148" value="" style="edgeStyle=entityRelationEdgeStyle;fontSize=12;html=1;endArrow=ERoneToMany;rounded=0;entryX=0;entryY=0.5;entryDx=0;entryDy=0;exitX=0;exitY=0.5;exitDx=0;exitDy=0;" edge="1" parent="1" source="QNxF9Y5TahNW1WKbqhld-146" target="QNxF9Y5TahNW1WKbqhld-97">
          <mxGeometry width="100" height="100" relative="1" as="geometry">
            <mxPoint x="900" y="480" as="sourcePoint" />
            <mxPoint x="1000" y="380" as="targetPoint" />
            <Array as="points">
              <mxPoint x="710" y="610" />
              <mxPoint x="650" y="640" />
            </Array>
          </mxGeometry>
        </mxCell>
        <mxCell id="QNxF9Y5TahNW1WKbqhld-151" value="Project_ID" style="ellipse;whiteSpace=wrap;html=1;align=center;fontStyle=4;" vertex="1" parent="1">
          <mxGeometry x="1110" y="440" width="100" height="40" as="geometry" />
        </mxCell>
        <mxCell id="QNxF9Y5TahNW1WKbqhld-152" value="Start Date&amp;nbsp;" style="ellipse;whiteSpace=wrap;html=1;align=center;" vertex="1" parent="1">
          <mxGeometry x="970" y="480" width="100" height="40" as="geometry" />
        </mxCell>
        <mxCell id="QNxF9Y5TahNW1WKbqhld-153" value="End Date&amp;nbsp;" style="ellipse;whiteSpace=wrap;html=1;align=center;" vertex="1" parent="1">
          <mxGeometry x="1250" y="485" width="100" height="40" as="geometry" />
        </mxCell>
        <mxCell id="QNxF9Y5TahNW1WKbqhld-154" value="Amount" style="ellipse;whiteSpace=wrap;html=1;align=center;" vertex="1" parent="1">
          <mxGeometry x="1260" y="560" width="100" height="40" as="geometry" />
        </mxCell>
        <mxCell id="QNxF9Y5TahNW1WKbqhld-155" value="" style="endArrow=none;html=1;rounded=0;entryX=0;entryY=0.675;entryDx=0;entryDy=0;entryPerimeter=0;exitX=1;exitY=0.25;exitDx=0;exitDy=0;" edge="1" parent="1" source="QNxF9Y5TahNW1WKbqhld-147" target="QNxF9Y5TahNW1WKbqhld-154">
          <mxGeometry width="50" height="50" relative="1" as="geometry">
            <mxPoint x="1225" y="590" as="sourcePoint" />
            <mxPoint x="1275" y="540" as="targetPoint" />
          </mxGeometry>
        </mxCell>
        <mxCell id="QNxF9Y5TahNW1WKbqhld-156" value="" style="endArrow=none;html=1;rounded=0;exitX=0.5;exitY=0;exitDx=0;exitDy=0;entryX=0;entryY=1;entryDx=0;entryDy=0;" edge="1" parent="1" source="QNxF9Y5TahNW1WKbqhld-147" target="QNxF9Y5TahNW1WKbqhld-153">
          <mxGeometry width="50" height="50" relative="1" as="geometry">
            <mxPoint x="1220" y="480" as="sourcePoint" />
            <mxPoint x="1270" y="430" as="targetPoint" />
          </mxGeometry>
        </mxCell>
        <mxCell id="QNxF9Y5TahNW1WKbqhld-157" value="" style="endArrow=none;html=1;rounded=0;entryX=0.5;entryY=1;entryDx=0;entryDy=0;exitX=0.5;exitY=0;exitDx=0;exitDy=0;" edge="1" parent="1" source="QNxF9Y5TahNW1WKbqhld-147" target="QNxF9Y5TahNW1WKbqhld-151">
          <mxGeometry width="50" height="50" relative="1" as="geometry">
            <mxPoint x="920" y="450" as="sourcePoint" />
            <mxPoint x="970" y="400" as="targetPoint" />
          </mxGeometry>
        </mxCell>
        <mxCell id="QNxF9Y5TahNW1WKbqhld-158" value="" style="endArrow=none;html=1;rounded=0;entryX=1;entryY=0.5;entryDx=0;entryDy=0;exitX=0.45;exitY=-0.05;exitDx=0;exitDy=0;exitPerimeter=0;" edge="1" parent="1" source="QNxF9Y5TahNW1WKbqhld-147" target="QNxF9Y5TahNW1WKbqhld-152">
          <mxGeometry width="50" height="50" relative="1" as="geometry">
            <mxPoint x="920" y="450" as="sourcePoint" />
            <mxPoint x="970" y="400" as="targetPoint" />
          </mxGeometry>
        </mxCell>
        <mxCell id="QNxF9Y5TahNW1WKbqhld-159" value="" style="edgeStyle=entityRelationEdgeStyle;fontSize=12;html=1;endArrow=ERoneToMany;rounded=0;entryX=0;entryY=0.5;entryDx=0;entryDy=0;exitX=1;exitY=0.5;exitDx=0;exitDy=0;" edge="1" parent="1" source="QNxF9Y5TahNW1WKbqhld-146" target="QNxF9Y5TahNW1WKbqhld-147">
          <mxGeometry width="100" height="100" relative="1" as="geometry">
            <mxPoint x="900" y="480" as="sourcePoint" />
            <mxPoint x="1000" y="380" as="targetPoint" />
          </mxGeometry>
        </mxCell>
        <mxCell id="QNxF9Y5TahNW1WKbqhld-160" value="&lt;b&gt;&lt;u&gt;&lt;font style=&quot;font-size: 22px;&quot;&gt;Question No # 01&lt;/font&gt;&lt;/u&gt;&lt;/b&gt;" style="whiteSpace=wrap;html=1;fillColor=#fa6800;fontColor=#000000;strokeColor=#C73500;" vertex="1" parent="1">
          <mxGeometry x="-200" y="-140" width="120" height="60" as="geometry" />
        </mxCell>
        <mxCell id="QNxF9Y5TahNW1WKbqhld-161" value="Employ" style="whiteSpace=wrap;html=1;align=center;fillColor=#0050ef;fontColor=#ffffff;strokeColor=#001DBC;" vertex="1" parent="1">
          <mxGeometry x="90" y="1000" width="100" height="40" as="geometry" />
        </mxCell>
        <mxCell id="QNxF9Y5TahNW1WKbqhld-162" value="Work in&amp;nbsp;" style="shape=rhombus;perimeter=rhombusPerimeter;whiteSpace=wrap;html=1;align=center;fillColor=#fff2cc;strokeColor=#d6b656;" vertex="1" parent="1">
          <mxGeometry x="340" y="990" width="120" height="60" as="geometry" />
        </mxCell>
        <mxCell id="QNxF9Y5TahNW1WKbqhld-163" value="Project" style="whiteSpace=wrap;html=1;align=center;fillColor=#0050ef;fontColor=#ffffff;strokeColor=#001DBC;" vertex="1" parent="1">
          <mxGeometry x="580" y="1000" width="100" height="40" as="geometry" />
        </mxCell>
        <mxCell id="QNxF9Y5TahNW1WKbqhld-164" value="" style="edgeStyle=entityRelationEdgeStyle;fontSize=12;html=1;endArrow=ERoneToMany;rounded=0;entryX=0;entryY=0.5;entryDx=0;entryDy=0;exitX=1;exitY=0.5;exitDx=0;exitDy=0;" edge="1" parent="1" source="QNxF9Y5TahNW1WKbqhld-162" target="QNxF9Y5TahNW1WKbqhld-163">
          <mxGeometry width="100" height="100" relative="1" as="geometry">
            <mxPoint x="200" y="990" as="sourcePoint" />
            <mxPoint x="300" y="890" as="targetPoint" />
          </mxGeometry>
        </mxCell>
        <mxCell id="QNxF9Y5TahNW1WKbqhld-165" value="" style="edgeStyle=entityRelationEdgeStyle;fontSize=12;html=1;endArrow=ERoneToMany;rounded=0;entryX=1;entryY=0.5;entryDx=0;entryDy=0;exitX=0;exitY=0.5;exitDx=0;exitDy=0;" edge="1" parent="1" source="QNxF9Y5TahNW1WKbqhld-162" target="QNxF9Y5TahNW1WKbqhld-161">
          <mxGeometry width="100" height="100" relative="1" as="geometry">
            <mxPoint x="200" y="990" as="sourcePoint" />
            <mxPoint x="300" y="890" as="targetPoint" />
          </mxGeometry>
        </mxCell>
        <mxCell id="QNxF9Y5TahNW1WKbqhld-167" value="Residence" style="ellipse;whiteSpace=wrap;html=1;align=center;" vertex="1" parent="1">
          <mxGeometry x="-30" y="940" width="100" height="40" as="geometry" />
        </mxCell>
        <mxCell id="QNxF9Y5TahNW1WKbqhld-170" value="Gender" style="ellipse;whiteSpace=wrap;html=1;align=center;" vertex="1" parent="1">
          <mxGeometry x="210" y="960" width="100" height="40" as="geometry" />
        </mxCell>
        <mxCell id="QNxF9Y5TahNW1WKbqhld-171" value="Emp_ID" style="ellipse;whiteSpace=wrap;html=1;align=center;fontStyle=4;" vertex="1" parent="1">
          <mxGeometry x="70" y="920" width="100" height="40" as="geometry" />
        </mxCell>
        <mxCell id="QNxF9Y5TahNW1WKbqhld-172" value="DOB" style="ellipse;whiteSpace=wrap;html=1;align=center;" vertex="1" parent="1">
          <mxGeometry x="-40" y="1040" width="100" height="40" as="geometry" />
        </mxCell>
        <mxCell id="QNxF9Y5TahNW1WKbqhld-173" value="Income" style="ellipse;whiteSpace=wrap;html=1;align=center;" vertex="1" parent="1">
          <mxGeometry x="30" y="1080" width="100" height="40" as="geometry" />
        </mxCell>
        <mxCell id="QNxF9Y5TahNW1WKbqhld-174" value="" style="endArrow=none;html=1;rounded=0;" edge="1" parent="1" source="QNxF9Y5TahNW1WKbqhld-173">
          <mxGeometry width="50" height="50" relative="1" as="geometry">
            <mxPoint x="95" y="1080" as="sourcePoint" />
            <mxPoint x="110" y="1040" as="targetPoint" />
          </mxGeometry>
        </mxCell>
        <mxCell id="QNxF9Y5TahNW1WKbqhld-175" value="" style="endArrow=none;html=1;rounded=0;entryX=0;entryY=1;entryDx=0;entryDy=0;exitX=1;exitY=0.25;exitDx=0;exitDy=0;" edge="1" parent="1" source="QNxF9Y5TahNW1WKbqhld-161" target="QNxF9Y5TahNW1WKbqhld-170">
          <mxGeometry width="50" height="50" relative="1" as="geometry">
            <mxPoint x="180" y="1000" as="sourcePoint" />
            <mxPoint x="230" y="950" as="targetPoint" />
          </mxGeometry>
        </mxCell>
        <mxCell id="QNxF9Y5TahNW1WKbqhld-176" value="" style="endArrow=none;html=1;rounded=0;exitX=1;exitY=0.5;exitDx=0;exitDy=0;entryX=0;entryY=0.5;entryDx=0;entryDy=0;" edge="1" parent="1" source="QNxF9Y5TahNW1WKbqhld-172" target="QNxF9Y5TahNW1WKbqhld-161">
          <mxGeometry width="50" height="50" relative="1" as="geometry">
            <mxPoint x="115" y="1105" as="sourcePoint" />
            <mxPoint x="165" y="1055" as="targetPoint" />
          </mxGeometry>
        </mxCell>
        <mxCell id="QNxF9Y5TahNW1WKbqhld-177" value="" style="endArrow=none;html=1;rounded=0;exitX=1;exitY=0.75;exitDx=0;exitDy=0;exitPerimeter=0;entryX=0.612;entryY=-0.075;entryDx=0;entryDy=0;entryPerimeter=0;" edge="1" parent="1" source="QNxF9Y5TahNW1WKbqhld-167" target="QNxF9Y5TahNW1WKbqhld-161">
          <mxGeometry width="50" height="50" relative="1" as="geometry">
            <mxPoint x="180" y="1000" as="sourcePoint" />
            <mxPoint x="230" y="950" as="targetPoint" />
            <Array as="points">
              <mxPoint x="90" y="970" />
            </Array>
          </mxGeometry>
        </mxCell>
        <mxCell id="QNxF9Y5TahNW1WKbqhld-178" value="" style="endArrow=none;html=1;rounded=0;exitX=0.5;exitY=1;exitDx=0;exitDy=0;entryX=0.594;entryY=-0.097;entryDx=0;entryDy=0;entryPerimeter=0;" edge="1" parent="1" source="QNxF9Y5TahNW1WKbqhld-171" target="QNxF9Y5TahNW1WKbqhld-161">
          <mxGeometry width="50" height="50" relative="1" as="geometry">
            <mxPoint x="180" y="1000" as="sourcePoint" />
            <mxPoint x="230" y="950" as="targetPoint" />
          </mxGeometry>
        </mxCell>
        <mxCell id="QNxF9Y5TahNW1WKbqhld-179" value="Project_ID" style="ellipse;whiteSpace=wrap;html=1;align=center;fontStyle=4;" vertex="1" parent="1">
          <mxGeometry x="580" y="920" width="100" height="40" as="geometry" />
        </mxCell>
        <mxCell id="QNxF9Y5TahNW1WKbqhld-180" value="Name" style="ellipse;whiteSpace=wrap;html=1;align=center;" vertex="1" parent="1">
          <mxGeometry x="685" y="920" width="100" height="40" as="geometry" />
        </mxCell>
        <mxCell id="QNxF9Y5TahNW1WKbqhld-181" value="Hours Per Weak" style="ellipse;whiteSpace=wrap;html=1;align=center;" vertex="1" parent="1">
          <mxGeometry x="470" y="920" width="100" height="40" as="geometry" />
        </mxCell>
        <mxCell id="QNxF9Y5TahNW1WKbqhld-182" value="" style="endArrow=none;html=1;rounded=0;entryX=0;entryY=1;entryDx=0;entryDy=0;exitX=0.5;exitY=0;exitDx=0;exitDy=0;" edge="1" parent="1" source="QNxF9Y5TahNW1WKbqhld-163" target="QNxF9Y5TahNW1WKbqhld-180">
          <mxGeometry width="50" height="50" relative="1" as="geometry">
            <mxPoint x="350" y="1000" as="sourcePoint" />
            <mxPoint x="400" y="950" as="targetPoint" />
          </mxGeometry>
        </mxCell>
        <mxCell id="QNxF9Y5TahNW1WKbqhld-183" value="" style="endArrow=none;html=1;rounded=0;entryX=0.5;entryY=1;entryDx=0;entryDy=0;exitX=0.5;exitY=0;exitDx=0;exitDy=0;" edge="1" parent="1" source="QNxF9Y5TahNW1WKbqhld-163" target="QNxF9Y5TahNW1WKbqhld-179">
          <mxGeometry width="50" height="50" relative="1" as="geometry">
            <mxPoint x="350" y="1000" as="sourcePoint" />
            <mxPoint x="400" y="950" as="targetPoint" />
          </mxGeometry>
        </mxCell>
        <mxCell id="QNxF9Y5TahNW1WKbqhld-184" value="" style="endArrow=none;html=1;rounded=0;entryX=0.5;entryY=1;entryDx=0;entryDy=0;" edge="1" parent="1" source="QNxF9Y5TahNW1WKbqhld-163" target="QNxF9Y5TahNW1WKbqhld-181">
          <mxGeometry width="50" height="50" relative="1" as="geometry">
            <mxPoint x="350" y="1000" as="sourcePoint" />
            <mxPoint x="400" y="950" as="targetPoint" />
          </mxGeometry>
        </mxCell>
        <mxCell id="QNxF9Y5TahNW1WKbqhld-185" value="is Assigned" style="rhombus;whiteSpace=wrap;html=1;fillColor=#ffe6cc;strokeColor=#d79b00;" vertex="1" parent="1">
          <mxGeometry x="100" y="1120" width="80" height="80" as="geometry" />
        </mxCell>
        <mxCell id="QNxF9Y5TahNW1WKbqhld-187" value="Area of Work&amp;nbsp;" style="whiteSpace=wrap;html=1;align=center;fillColor=#0050ef;fontColor=#ffffff;strokeColor=#001DBC;" vertex="1" parent="1">
          <mxGeometry x="100" y="1280" width="100" height="40" as="geometry" />
        </mxCell>
        <mxCell id="QNxF9Y5TahNW1WKbqhld-188" value="" style="edgeStyle=entityRelationEdgeStyle;fontSize=12;html=1;endArrow=ERoneToMany;rounded=0;entryX=0.699;entryY=1.077;entryDx=0;entryDy=0;entryPerimeter=0;exitX=0.5;exitY=0;exitDx=0;exitDy=0;" edge="1" parent="1" source="QNxF9Y5TahNW1WKbqhld-185" target="QNxF9Y5TahNW1WKbqhld-161">
          <mxGeometry width="100" height="100" relative="1" as="geometry">
            <mxPoint x="270" y="1220" as="sourcePoint" />
            <mxPoint x="370" y="1120" as="targetPoint" />
          </mxGeometry>
        </mxCell>
        <mxCell id="QNxF9Y5TahNW1WKbqhld-189" value="" style="endArrow=none;html=1;rounded=0;exitX=0.399;exitY=-0.032;exitDx=0;exitDy=0;entryX=0.5;entryY=1;entryDx=0;entryDy=0;exitPerimeter=0;" edge="1" parent="1" source="QNxF9Y5TahNW1WKbqhld-190" target="QNxF9Y5TahNW1WKbqhld-185">
          <mxGeometry width="50" height="50" relative="1" as="geometry">
            <mxPoint x="300" y="1200" as="sourcePoint" />
            <mxPoint x="350" y="1150" as="targetPoint" />
          </mxGeometry>
        </mxCell>
        <mxCell id="QNxF9Y5TahNW1WKbqhld-192" value="" style="endArrow=none;html=1;rounded=0;exitX=0.399;exitY=-0.032;exitDx=0;exitDy=0;entryX=0.5;entryY=1;entryDx=0;entryDy=0;exitPerimeter=0;" edge="1" parent="1" source="QNxF9Y5TahNW1WKbqhld-187" target="QNxF9Y5TahNW1WKbqhld-190">
          <mxGeometry width="50" height="50" relative="1" as="geometry">
            <mxPoint x="140" y="1279" as="sourcePoint" />
            <mxPoint x="140" y="1200" as="targetPoint" />
          </mxGeometry>
        </mxCell>
        <mxCell id="QNxF9Y5TahNW1WKbqhld-190" value="" style="line;strokeWidth=2;html=1;" vertex="1" parent="1">
          <mxGeometry x="125" y="1230" width="30" height="10" as="geometry" />
        </mxCell>
        <mxCell id="QNxF9Y5TahNW1WKbqhld-193" value="Area_ID" style="ellipse;whiteSpace=wrap;html=1;align=center;fontStyle=4;" vertex="1" parent="1">
          <mxGeometry x="-30" y="1220" width="100" height="40" as="geometry" />
        </mxCell>
        <mxCell id="QNxF9Y5TahNW1WKbqhld-194" value="Name" style="ellipse;whiteSpace=wrap;html=1;align=center;" vertex="1" parent="1">
          <mxGeometry x="-40" y="1290" width="100" height="40" as="geometry" />
        </mxCell>
        <mxCell id="QNxF9Y5TahNW1WKbqhld-195" value="" style="endArrow=none;html=1;rounded=0;exitX=1;exitY=0.5;exitDx=0;exitDy=0;entryX=0;entryY=0.25;entryDx=0;entryDy=0;" edge="1" parent="1" source="QNxF9Y5TahNW1WKbqhld-194" target="QNxF9Y5TahNW1WKbqhld-187">
          <mxGeometry width="50" height="50" relative="1" as="geometry">
            <mxPoint x="90" y="1360" as="sourcePoint" />
            <mxPoint x="140" y="1310" as="targetPoint" />
          </mxGeometry>
        </mxCell>
        <mxCell id="QNxF9Y5TahNW1WKbqhld-196" value="" style="endArrow=none;html=1;rounded=0;exitX=1;exitY=0.5;exitDx=0;exitDy=0;entryX=0.25;entryY=0;entryDx=0;entryDy=0;" edge="1" parent="1" source="QNxF9Y5TahNW1WKbqhld-193" target="QNxF9Y5TahNW1WKbqhld-187">
          <mxGeometry width="50" height="50" relative="1" as="geometry">
            <mxPoint x="300" y="1350" as="sourcePoint" />
            <mxPoint x="350" y="1300" as="targetPoint" />
          </mxGeometry>
        </mxCell>
        <mxCell id="QNxF9Y5TahNW1WKbqhld-197" value="Has immediate" style="rhombus;whiteSpace=wrap;html=1;fillColor=#ffe6cc;strokeColor=#d79b00;" vertex="1" parent="1">
          <mxGeometry x="360" y="1120" width="80" height="80" as="geometry" />
        </mxCell>
        <mxCell id="QNxF9Y5TahNW1WKbqhld-198" value="Supervisor" style="whiteSpace=wrap;html=1;align=center;fillColor=#0050ef;fontColor=#ffffff;strokeColor=#001DBC;" vertex="1" parent="1">
          <mxGeometry x="350" y="1280" width="100" height="40" as="geometry" />
        </mxCell>
        <mxCell id="QNxF9Y5TahNW1WKbqhld-199" value="" style="edgeStyle=entityRelationEdgeStyle;fontSize=12;html=1;endArrow=ERoneToMany;rounded=0;entryX=1;entryY=1;entryDx=0;entryDy=0;exitX=0.5;exitY=0;exitDx=0;exitDy=0;" edge="1" parent="1" source="QNxF9Y5TahNW1WKbqhld-197" target="QNxF9Y5TahNW1WKbqhld-161">
          <mxGeometry width="100" height="100" relative="1" as="geometry">
            <mxPoint x="270" y="1230" as="sourcePoint" />
            <mxPoint x="370" y="1130" as="targetPoint" />
            <Array as="points">
              <mxPoint x="290" y="1120" />
              <mxPoint x="280" y="1130" />
            </Array>
          </mxGeometry>
        </mxCell>
        <mxCell id="QNxF9Y5TahNW1WKbqhld-200" value="" style="endArrow=none;html=1;rounded=0;exitX=0.5;exitY=0;exitDx=0;exitDy=0;entryX=0.5;entryY=1;entryDx=0;entryDy=0;" edge="1" parent="1" source="QNxF9Y5TahNW1WKbqhld-201" target="QNxF9Y5TahNW1WKbqhld-197">
          <mxGeometry width="50" height="50" relative="1" as="geometry">
            <mxPoint x="300" y="1210" as="sourcePoint" />
            <mxPoint x="350" y="1160" as="targetPoint" />
          </mxGeometry>
        </mxCell>
        <mxCell id="QNxF9Y5TahNW1WKbqhld-202" value="" style="endArrow=none;html=1;rounded=0;exitX=0.5;exitY=0;exitDx=0;exitDy=0;entryX=0.5;entryY=1;entryDx=0;entryDy=0;" edge="1" parent="1" source="QNxF9Y5TahNW1WKbqhld-198" target="QNxF9Y5TahNW1WKbqhld-201">
          <mxGeometry width="50" height="50" relative="1" as="geometry">
            <mxPoint x="400" y="1280" as="sourcePoint" />
            <mxPoint x="400" y="1200" as="targetPoint" />
          </mxGeometry>
        </mxCell>
        <mxCell id="QNxF9Y5TahNW1WKbqhld-201" value="" style="line;strokeWidth=2;html=1;" vertex="1" parent="1">
          <mxGeometry x="390" y="1250" width="20" height="10" as="geometry" />
        </mxCell>
        <mxCell id="QNxF9Y5TahNW1WKbqhld-203" value="Name" style="ellipse;whiteSpace=wrap;html=1;align=center;" vertex="1" parent="1">
          <mxGeometry x="460" y="1235" width="100" height="40" as="geometry" />
        </mxCell>
        <mxCell id="QNxF9Y5TahNW1WKbqhld-204" value="Supervisor_ID" style="ellipse;whiteSpace=wrap;html=1;align=center;fontStyle=4;" vertex="1" parent="1">
          <mxGeometry x="240" y="1230" width="100" height="40" as="geometry" />
        </mxCell>
        <mxCell id="QNxF9Y5TahNW1WKbqhld-205" value="" style="endArrow=none;html=1;rounded=0;entryX=0.5;entryY=0;entryDx=0;entryDy=0;exitX=0;exitY=0.5;exitDx=0;exitDy=0;" edge="1" parent="1" source="QNxF9Y5TahNW1WKbqhld-203" target="QNxF9Y5TahNW1WKbqhld-198">
          <mxGeometry width="50" height="50" relative="1" as="geometry">
            <mxPoint x="300" y="1210" as="sourcePoint" />
            <mxPoint x="350" y="1160" as="targetPoint" />
          </mxGeometry>
        </mxCell>
        <mxCell id="QNxF9Y5TahNW1WKbqhld-206" value="" style="endArrow=none;html=1;rounded=0;exitX=0.5;exitY=0;exitDx=0;exitDy=0;entryX=1;entryY=0.5;entryDx=0;entryDy=0;" edge="1" parent="1" source="QNxF9Y5TahNW1WKbqhld-198" target="QNxF9Y5TahNW1WKbqhld-204">
          <mxGeometry width="50" height="50" relative="1" as="geometry">
            <mxPoint x="300" y="1210" as="sourcePoint" />
            <mxPoint x="350" y="1160" as="targetPoint" />
          </mxGeometry>
        </mxCell>
        <mxCell id="QNxF9Y5TahNW1WKbqhld-207" value="Belongs" style="shape=rhombus;perimeter=rhombusPerimeter;whiteSpace=wrap;html=1;align=center;fillColor=#ffe6cc;strokeColor=#d79b00;" vertex="1" parent="1">
          <mxGeometry x="-280" y="990" width="120" height="60" as="geometry" />
        </mxCell>
        <mxCell id="QNxF9Y5TahNW1WKbqhld-208" value="Dependent" style="whiteSpace=wrap;html=1;align=center;fillColor=#0050ef;fontColor=#ffffff;strokeColor=#001DBC;" vertex="1" parent="1">
          <mxGeometry x="-510" y="1000" width="100" height="40" as="geometry" />
        </mxCell>
        <mxCell id="QNxF9Y5TahNW1WKbqhld-209" value="" style="edgeStyle=entityRelationEdgeStyle;fontSize=12;html=1;endArrow=ERoneToMany;rounded=0;entryX=1;entryY=0.5;entryDx=0;entryDy=0;exitX=0;exitY=0.5;exitDx=0;exitDy=0;" edge="1" parent="1" source="QNxF9Y5TahNW1WKbqhld-207" target="QNxF9Y5TahNW1WKbqhld-208">
          <mxGeometry width="100" height="100" relative="1" as="geometry">
            <mxPoint x="-190" y="1130" as="sourcePoint" />
            <mxPoint x="-90" y="1030" as="targetPoint" />
          </mxGeometry>
        </mxCell>
        <mxCell id="QNxF9Y5TahNW1WKbqhld-210" value="" style="edgeStyle=entityRelationEdgeStyle;fontSize=12;html=1;endArrow=ERone;endFill=1;rounded=0;entryX=0;entryY=0.5;entryDx=0;entryDy=0;exitX=1;exitY=0.5;exitDx=0;exitDy=0;" edge="1" parent="1" source="QNxF9Y5TahNW1WKbqhld-207" target="QNxF9Y5TahNW1WKbqhld-161">
          <mxGeometry width="100" height="100" relative="1" as="geometry">
            <mxPoint x="-190" y="1130" as="sourcePoint" />
            <mxPoint x="-90" y="1030" as="targetPoint" />
          </mxGeometry>
        </mxCell>
        <mxCell id="QNxF9Y5TahNW1WKbqhld-211" value="Dependent_ID" style="ellipse;whiteSpace=wrap;html=1;align=center;fontStyle=4;" vertex="1" parent="1">
          <mxGeometry x="-490" y="920" width="100" height="40" as="geometry" />
        </mxCell>
        <mxCell id="QNxF9Y5TahNW1WKbqhld-212" value="Name" style="ellipse;whiteSpace=wrap;html=1;align=center;" vertex="1" parent="1">
          <mxGeometry x="-640" y="960" width="100" height="40" as="geometry" />
        </mxCell>
        <mxCell id="QNxF9Y5TahNW1WKbqhld-213" value="Gender" style="ellipse;whiteSpace=wrap;html=1;align=center;" vertex="1" parent="1">
          <mxGeometry x="-650" y="1050" width="100" height="40" as="geometry" />
        </mxCell>
        <mxCell id="QNxF9Y5TahNW1WKbqhld-214" value="Relationship to Employee" style="ellipse;whiteSpace=wrap;html=1;align=center;" vertex="1" parent="1">
          <mxGeometry x="-425" y="1080" width="155" height="70" as="geometry" />
        </mxCell>
        <mxCell id="QNxF9Y5TahNW1WKbqhld-215" value="DOB" style="ellipse;whiteSpace=wrap;html=1;align=center;" vertex="1" parent="1">
          <mxGeometry x="-560" y="1090" width="100" height="40" as="geometry" />
        </mxCell>
        <mxCell id="QNxF9Y5TahNW1WKbqhld-216" value="" style="endArrow=none;html=1;rounded=0;exitX=1;exitY=0;exitDx=0;exitDy=0;entryX=0.25;entryY=1;entryDx=0;entryDy=0;" edge="1" parent="1" source="QNxF9Y5TahNW1WKbqhld-215" target="QNxF9Y5TahNW1WKbqhld-208">
          <mxGeometry width="50" height="50" relative="1" as="geometry">
            <mxPoint x="-450" y="1090" as="sourcePoint" />
            <mxPoint x="-400" y="1040" as="targetPoint" />
          </mxGeometry>
        </mxCell>
        <mxCell id="QNxF9Y5TahNW1WKbqhld-217" value="" style="endArrow=none;html=1;rounded=0;entryX=0.25;entryY=1;entryDx=0;entryDy=0;exitX=1;exitY=0.5;exitDx=0;exitDy=0;" edge="1" parent="1" source="QNxF9Y5TahNW1WKbqhld-213" target="QNxF9Y5TahNW1WKbqhld-208">
          <mxGeometry width="50" height="50" relative="1" as="geometry">
            <mxPoint x="-560" y="1045" as="sourcePoint" />
            <mxPoint x="-510" y="995" as="targetPoint" />
          </mxGeometry>
        </mxCell>
        <mxCell id="QNxF9Y5TahNW1WKbqhld-218" value="" style="endArrow=none;html=1;rounded=0;exitX=0.5;exitY=0;exitDx=0;exitDy=0;entryX=1;entryY=0.5;entryDx=0;entryDy=0;" edge="1" parent="1" source="QNxF9Y5TahNW1WKbqhld-208" target="QNxF9Y5TahNW1WKbqhld-212">
          <mxGeometry width="50" height="50" relative="1" as="geometry">
            <mxPoint x="-570" y="950" as="sourcePoint" />
            <mxPoint x="-520" y="900" as="targetPoint" />
          </mxGeometry>
        </mxCell>
        <mxCell id="QNxF9Y5TahNW1WKbqhld-219" value="" style="endArrow=none;html=1;rounded=0;entryX=0.5;entryY=1;entryDx=0;entryDy=0;exitX=0.5;exitY=0;exitDx=0;exitDy=0;" edge="1" parent="1" source="QNxF9Y5TahNW1WKbqhld-208" target="QNxF9Y5TahNW1WKbqhld-211">
          <mxGeometry width="50" height="50" relative="1" as="geometry">
            <mxPoint x="-290" y="1110" as="sourcePoint" />
            <mxPoint x="-240" y="1060" as="targetPoint" />
          </mxGeometry>
        </mxCell>
        <mxCell id="QNxF9Y5TahNW1WKbqhld-220" value="" style="endArrow=none;html=1;rounded=0;exitX=0.25;exitY=1;exitDx=0;exitDy=0;" edge="1" parent="1" source="QNxF9Y5TahNW1WKbqhld-208" target="QNxF9Y5TahNW1WKbqhld-214">
          <mxGeometry width="50" height="50" relative="1" as="geometry">
            <mxPoint x="-290" y="1110" as="sourcePoint" />
            <mxPoint x="-240" y="1060" as="targetPoint" />
          </mxGeometry>
        </mxCell>
        <mxCell id="QNxF9Y5TahNW1WKbqhld-221" value="&lt;b&gt;&lt;u&gt;&lt;font style=&quot;font-size: 22px;&quot;&gt;Question No # 02&lt;/font&gt;&lt;/u&gt;&lt;/b&gt;" style="whiteSpace=wrap;html=1;fillColor=#fa6800;fontColor=#000000;strokeColor=#C73500;" vertex="1" parent="1">
          <mxGeometry x="-400" y="810" width="120" height="60" as="geometry" />
        </mxCell>
      </root>
    </mxGraphModel>
  </diagram>
</mxfile>
